<?xml version="1.0" encoding="utf-8"?>
<svg xmlns="http://www.w3.org/2000/svg" viewBox="0 0 500 500" xmlns:bx="https://boxy-svg.com" width="500px" height="500px"><defs><bx:export><bx:file format="svg"/></bx:export></defs><path fill="#FF9227" opacity="1.000000" stroke="none" d="M 135.75 262.488 C 154.004 260.233 171.819 256.68 187.508 246.849 C 207.485 234.333 219.123 216.517 223.302 194.546 C 228.664 166.359 245.119 145.839 270.761 130.993 C 271.42 130.885 271.62 130.685 271.821 130.484 C 271.821 130.484 271.929 130.575 272.24 130.606 C 273.376 129.993 274.199 129.351 275.021 128.709 C 275.021 128.709 275.078 128.768 275.369 128.723 C 276.135 128.35 276.61 128.02 277.086 127.693 C 277.086 127.693 277.14 127.777 277.42 127.735 C 278.184 127.362 278.667 127.03 279.151 126.698 C 279.151 126.698 279.186 126.787 279.469 126.754 C 280.238 126.388 280.724 126.053 281.211 125.72 C 281.211 125.72 281.257 125.807 281.613 125.799 C 283.716 125.023 285.454 124.258 287.196 123.493 C 287.196 123.493 287.284 123.518 287.661 123.65 C 288.789 123.363 289.545 122.944 290.3 122.526 C 290.3 122.526 290.407 122.557 290.831 122.69 C 300.159 121.548 309.045 119.299 317.962 119.176 C 350.035 118.729 382.121 119.026 414.2 118.929 C 415.947 118.923 417.689 117.889 419.432 117.333 C 420.28 117.231 421.126 117.053 421.977 117.033 C 429.885 116.86 430.595 117.854 429.977 125.337 C 428.75 140.189 424.932 154.392 418.516 167.955 C 411.209 183.401 400.669 196.431 385.238 206.429 C 382.461 208.193 380.21 209.609 377.962 211.025 C 377.962 211.025 377.685 211.023 377.276 211.216 C 365.544 216.675 353.822 220.696 340.714 221.542 C 338.521 221.804 336.72 222.118 334.918 222.432 C 333.814 222.419 332.708 222.408 330.886 222.432 C 329.683 222.742 329.197 223.016 328.711 223.291 C 325.93 223.331 323.15 223.368 319.662 223.285 C 318.775 223.206 318.594 223.251 318.411 223.295 C 296.069 222.279 275.23 227.003 256.193 238.19 C 233.44 251.561 218.822 270.613 212.232 295.163 C 211.731 297.035 211.118 298.88 210.008 301.19 C 206.961 308.405 204.46 315.169 201.96 321.933 C 201.96 321.933 201.929 321.841 201.628 321.965 C 199.826 325.295 198.324 328.501 196.823 331.709 C 196.823 331.709 196.779 331.618 196.534 331.742 C 196.099 332.432 195.904 332.999 195.708 333.562 C 195.708 333.562 195.648 333.497 195.382 333.53 C 194.937 334.172 194.757 334.783 194.579 335.391 C 181.014 356.554 160.922 369.408 135.908 375.256 C 90.766 379.263 86.904 379.308 82.295 379.028 C 77.499 378.271 73.454 377.5 69.403 377.471 C 51.296 377.338 33.19 377.417 15.083 377.421 C 14.429 375.407 13.135 373.362 13.245 371.385 C 13.536 366.183 14.438 361.013 15.353 355.325 C 15.974 354.639 16.09 354.361 15.954 353.993 C 16.056 353.247 16.156 352.502 16.128 351.398 C 19.197 343.022 21.59 334.599 25.803 327.087 C 30.999 317.824 37.71 309.318 44.451 300.303 C 49.221 295.933 53.308 291.742 57.395 287.55 C 67.655 277.789 80.578 272.49 94.002 268.025 C 94.644 267.811 95.28 267.583 96.477 267.55 C 97.612 267.466 98.186 267.193 98.759 266.92 C 98.759 266.92 99.036 266.881 99.568 267.014 C 108.422 266.471 116.762 265.963 125.051 265.036 C 128.675 264.63 132.188 263.363 135.75 262.488 Z" style=""/><path fill="#F06F24" opacity="1.000000" stroke="none" d="M 203.667 370.461 C 207.783 365.155 211.9 359.848 216.542 354.192 C 217.278 353.155 217.486 352.463 217.695 351.771 C 217.695 351.771 217.743 351.62 218.188 351.608 C 219.179 350.062 219.724 348.528 220.273 346.994 C 220.273 346.994 220.308 347.077 220.559 346.928 C 220.943 346.179 221.076 345.581 221.208 344.98 C 221.208 344.98 221.247 345.086 221.557 344.982 C 222.439 342.712 223.013 340.548 223.586 338.384 C 227.054 326.272 228.975 313.516 234.273 302.167 C 252.049 264.091 282.98 240.812 326.511 232.964 C 328.666 232.575 330.848 232.33 333.793 231.966 C 335.399 231.715 336.232 231.514 337.063 231.313 C 337.819 231.247 338.575 231.181 340.174 231.11 C 344.83 231.058 348.643 231.012 352.934 231.031 C 392.984 231.05 432.555 231.002 472.509 231.016 C 473.669 231.034 474.442 230.991 475.67 231.008 C 480.118 231.193 484.436 230.232 487.442 234.467 C 487.637 236.884 487.717 238.882 487.724 241.222 C 487.581 242.495 487.515 243.425 487.213 244.514 C 486.973 245.009 486.97 245.346 486.929 246.105 C 486.688 248.19 486.485 249.858 486.013 251.765 C 485.736 253.171 485.729 254.336 485.722 255.503 C 485.632 255.918 485.541 256.333 485.092 257.309 C 484.02 261.629 483.309 265.39 482.597 269.151 C 482.455 269.555 482.314 269.962 481.872 270.953 C 477.323 282.095 473.078 292.65 468.832 303.203 C 468.495 303.646 468.157 304.092 467.488 305.039 C 465.463 308.37 463.769 311.198 462.075 314.024 C 462.075 314.024 461.995 314.233 461.754 314.434 C 461.117 315.146 460.722 315.655 460.327 316.166 C 460.327 316.166 460.107 316.308 459.811 316.577 C 459.206 317.498 458.898 318.149 458.588 318.802 C 458.588 318.802 458.671 318.84 458.416 318.887 C 458.079 319.23 457.994 319.527 457.91 319.819 C 457.866 319.981 457.821 320.139 457.39 320.648 C 455.442 322.863 453.883 324.731 452.322 326.6 C 451.975 326.647 451.73 326.821 451.21 327.485 C 448.185 330.633 445.54 333.425 442.892 336.256 C 442.894 336.298 442.806 336.292 442.461 336.298 C 430.854 346.211 417.925 353.677 403.574 359.655 C 402.115 360.132 401.014 360.538 399.517 360.916 C 391.125 362.787 383.126 364.687 375.128 366.59 C 374.03 366.631 372.934 366.671 370.95 366.717 C 354.824 366.718 339.557 366.156 324.36 366.91 C 314.043 367.422 303.826 369.776 293.565 371.307 C 293.118 371.355 292.67 371.402 291.602 371.522 C 290.457 371.806 289.932 372.016 289.406 372.228 C 288.259 372.526 287.111 372.824 285.29 373.324 C 279.668 375.671 274.715 377.819 269.439 380.06 C 267.992 380.795 266.869 381.435 265.38 382.153 C 243.222 397.499 240.35 400.374 237.315 402.891 C 232.967 406.893 233.104 407.385 233.055 407.717 C 232.868 407.554 233.233 407.884 232.888 407.933 C 232.305 408.565 232.07 409.147 231.774 409.938 C 231.538 410.407 231.289 410.556 230.661 410.717 C 230.165 411.423 229.972 411.998 229.751 412.535 C 229.746 412.529 229.745 412.523 229.745 412.521 C 229.74 412.531 229.704 412.562 229.563 412.617 C 229.137 413.002 228.95 413.29 228.769 413.533 C 228.773 413.533 228.773 413.537 228.761 413.542 C 228.757 413.548 228.754 413.553 228.751 413.559 C 228.751 413.553 228.751 413.549 228.752 413.547 C 228.733 413.553 228.704 413.561 228.651 413.57 C 228.36 413.676 228.163 413.793 228.177 413.818 C 228.279 414.021 228.417 414.207 228.582 414.633 C 228.617 414.87 228.527 415.34 228.527 415.34 C 228.527 415.34 228.169 415.373 227.726 415.524 C 227.155 416.009 227.025 416.344 226.896 416.679 C 226.896 416.679 226.935 416.519 226.655 416.623 C 226.147 417.303 225.918 417.883 225.676 418.42 C 225.673 418.411 225.675 418.403 225.678 418.399 C 225.666 418.41 225.621 418.447 225.46 418.521 C 224.995 419.242 224.824 419.822 224.64 420.362 C 224.636 420.353 224.639 420.346 224.642 420.343 C 224.633 420.351 224.592 420.388 224.422 420.471 C 223.96 421.192 223.793 421.775 223.611 422.314 C 223.607 422.302 223.61 422.295 223.611 422.293 C 223.606 422.301 223.566 422.335 223.392 422.42 C 222.93 423.144 222.763 423.726 222.583 424.266 C 222.58 424.256 222.581 424.25 222.584 424.246 C 222.574 424.256 222.53 424.292 222.364 424.371 C 221.903 425.096 221.739 425.682 221.56 426.219 C 221.557 426.212 221.559 426.204 221.561 426.2 C 221.548 426.213 221.5 426.25 221.343 426.326 C 220.855 427.07 220.672 427.667 220.496 428.47 C 220.501 428.677 220.628 429.071 220.628 429.071 C 220.628 429.071 220.479 429.049 220.084 429.216 C 219.278 430.938 218.868 432.494 218.439 434.006 C 218.436 433.995 218.439 433.988 218.44 433.984 C 218.43 433.995 218.384 434.04 218.209 434.14 C 217.745 435.207 217.592 436.095 217.426 436.934 C 217.423 436.928 217.424 436.921 217.426 436.917 C 217.41 436.933 217.358 436.982 217.184 437.083 C 215.32 443.991 213.788 450.71 212.241 457.391 C 212.225 457.351 212.313 457.352 212.005 457.536 C 211.545 458.603 211.396 459.49 211.233 460.331 C 211.23 460.324 211.232 460.317 211.233 460.312 C 211.221 460.325 211.173 460.369 211.003 460.462 C 210.515 461.508 210.342 462.38 210.145 463.22 C 210.121 463.185 210.207 463.194 209.927 463.35 C 209.487 464.084 209.328 464.662 209.153 465.2 C 209.149 465.19 209.152 465.184 209.153 465.18 C 209.144 465.19 209.102 465.228 208.936 465.312 C 208.479 466.038 208.317 466.619 208.136 467.16 C 208.133 467.151 208.136 467.143 208.138 467.139 C 208.132 467.147 208.091 467.182 207.919 467.262 C 207.444 467.969 207.263 468.542 207.054 469.077 C 207.049 469.07 207.048 469.066 207.047 469.062 C 207.042 469.074 207.011 469.11 206.864 469.181 C 206.527 469.626 206.43 469.955 206.337 470.207 C 206.341 470.222 206.313 470.299 206.073 470.327 C 205.507 470.939 205.286 471.511 205.043 472.039 C 205.043 472.034 205.041 472.03 205.041 472.028 C 205.027 472.042 204.983 472.077 204.848 472.137 C 204.494 472.614 204.412 472.967 204.261 473.275 C 204.191 473.228 204.363 473.236 204.021 473.256 C 203.429 473.832 203.176 474.385 202.902 474.906 C 202.897 474.898 202.897 474.893 202.897 474.892 C 202.896 474.896 202.874 474.928 202.708 475.006 C 202.275 475.424 202.093 475.723 201.784 476.289 C 200.729 477.304 199.801 478.05 198.53 478.816 C 197.793 479.27 197.396 479.703 196.929 480.09 C 196.857 480.043 197.028 480.061 196.738 480.057 C 196.209 480.322 195.97 480.594 195.722 480.818 C 195.712 480.77 195.8 480.816 195.45 480.807 C 194.269 481.455 193.436 482.112 192.601 482.727 C 192.598 482.685 192.673 482.729 192.345 482.729 C 191.526 483.073 191.033 483.416 190.542 483.716 C 190.544 483.675 190.62 483.716 190.178 483.69 C 188.2 483.734 186.357 483.308 185.177 483.959 C 178.309 487.747 170.768 487.564 163.294 487.492 C 139.282 487.262 115.272 486.742 91.26 486.649 C 85.305 486.627 79.947 486.829 78.937 479.428 C 79.01 479.215 78.916 478.776 79.034 478.407 C 79.475 476.017 79.798 473.998 80.378 471.896 C 80.765 471.532 80.895 471.252 81.087 470.656 C 81.152 469.912 81.154 469.483 81.48 468.909 C 82.032 467.909 82.264 467.055 82.734 466.037 C 83.173 465.17 83.375 464.465 83.841 463.492 C 85.554 459.637 87.001 456.049 88.448 452.463 C 88.721 452.279 88.994 452.096 89.396 451.357 C 90.616 448.791 91.704 446.78 92.994 444.653 C 93.379 444.288 93.492 444.012 93.86 443.554 C 96.732 439.594 99.286 435.789 102.143 431.854 C 102.939 431.3 103.43 430.875 104.193 430.315 C 109.426 425.254 114.388 420.33 119.629 415.305 C 120.401 414.633 120.898 414.063 121.736 413.454 C 122.889 412.78 123.701 412.146 124.51 411.513 C 124.51 411.513 124.463 411.489 124.845 411.457 C 128.084 409.5 130.942 407.578 133.798 405.653 C 153.104 396.046 174.814 391.187 192.811 378.991 C 193.916 378.242 194.949 377.398 196.465 376.648 C 197.053 376.47 197.188 376.242 197.324 376.014 C 197.324 376.014 197.33 376.172 197.711 376.175 C 198.582 375.515 199.067 374.853 199.554 374.192 C 199.554 374.192 199.684 374.347 199.971 374.31 C 200.752 373.599 201.244 372.921 201.738 372.246 C 202.216 371.725 202.691 371.206 203.416 370.574" style=""/><path fill="#FFBF42" opacity="1.000000" stroke="none" d="M 67.921 217.618 C 69.979 210.185 71.503 202.572 74.224 195.362 C 78.353 184.416 84.821 174.716 93.388 166.195 C 109.502 150.17 129.595 141.624 151.943 136.477 C 163.721 133.765 175.625 130.59 186.569 125.787 C 206.186 117.176 217.829 101.887 222.974 82.022 C 227.094 66.107 233.344 50.837 245.813 39.147 C 259.04 26.748 275.263 18.966 294.023 16.58 C 296.723 16.235 299.437 15.984 302.667 15.892 C 303.19 16.096 303.612 16.158 303.612 16.158 C 303.612 16.158 303.873 15.79 303.873 15.79 C 304.38 15.742 304.885 15.694 305.894 15.92 C 306.926 16.056 307.456 15.921 307.987 15.786 C 308.819 15.736 309.65 15.69 311.197 15.984 C 333.049 16.419 354.189 16.518 375.33 16.569 C 375.918 16.57 376.51 16.058 377.1 15.783 C 377.711 15.905 378.322 16.025 379.24 16.608 C 379.769 17.337 380.056 17.505 380.407 17.577 C 380.407 17.577 380.314 17.618 380.331 17.992 C 380.643 20.36 380.938 22.353 381.232 24.346 C 379.042 44.285 373.005 63.007 360.004 79.07 C 355.097 85.134 348.556 90.017 342.333 95.379 C 341.699 95.51 341.49 95.7 341.283 95.89 C 341.283 95.89 341.126 95.813 340.915 95.841 C 340.514 96.148 340.321 96.429 340.13 96.708 C 340.13 96.708 340.108 96.62 339.818 96.649 C 339.041 97.024 338.552 97.367 338.062 97.711 C 338.062 97.711 338.021 97.64 337.819 97.727 C 337.423 98.089 337.229 98.363 337.037 98.636 C 337.037 98.636 336.987 98.555 336.704 98.599 C 335.934 98.973 335.448 99.305 334.961 99.638 C 334.961 99.638 334.945 99.551 334.659 99.577 C 333.882 99.935 333.39 100.266 332.898 100.596 C 332.898 100.596 332.867 100.514 332.581 100.551 C 331.805 100.921 331.315 101.256 330.829 101.591 C 330.829 101.591 330.821 101.51 330.536 101.532 C 329.762 101.882 329.273 102.211 328.786 102.54 C 328.286 102.853 327.788 103.164 326.779 103.228 C 321.962 104.384 317.654 105.789 313.346 107.193 C 298.609 108.539 283.631 108.742 269.183 111.458 C 233.734 118.121 211.438 138.497 202.634 171.888 C 199.168 185.036 196.303 198.428 188.549 210.206 C 176.49 228.523 159.365 238.912 136.35 240.017 C 121.664 240.724 106.97 241.253 91.506 241.529 C 84.812 241.094 78.893 240.884 72.976 240.931 C 69.204 240.96 66.666 240.03 66.595 235.933 C 66.582 235.273 65.84 234.625 65.436 233.969 C 65.505 233.232 65.574 232.493 66.05 231.213 C 66.946 226.32 67.433 221.969 67.921 217.618 Z" style=""/></svg>